<?xml version="1.0" encoding="UTF-8"?> <svg xmlns="http://www.w3.org/2000/svg" xmlns:xlink="http://www.w3.org/1999/xlink" width="2000" zoomAndPan="magnify" viewBox="0 0 1500 1499.999933" height="2000" preserveAspectRatio="xMidYMid meet" version="1.0"><defs><clipPath id="3f06e2f5d1"><path d="M 76.5 76.5 L 1423.5 76.5 L 1423.5 1423.5 L 76.5 1423.5 Z M 76.5 76.5 " clip-rule="nonzero"></path></clipPath></defs><g clip-path="url(#3f06e2f5d1)"><path fill="#524f35" d="M 1423.488281 749.996094 C 1423.488281 761.015625 1423.21875 772.03125 1422.675781 783.042969 C 1422.136719 794.050781 1421.324219 805.039062 1420.246094 816.007812 C 1419.164062 826.976562 1417.816406 837.914062 1416.199219 848.816406 C 1414.582031 859.71875 1412.699219 870.574219 1410.546875 881.386719 C 1408.398438 892.195312 1405.984375 902.949219 1403.304688 913.640625 C 1400.625 924.332031 1397.6875 934.953125 1394.488281 945.5 C 1391.289062 956.046875 1387.832031 966.507812 1384.117188 976.886719 C 1380.40625 987.265625 1376.441406 997.546875 1372.222656 1007.730469 C 1368.003906 1017.914062 1363.539062 1027.984375 1358.824219 1037.949219 C 1354.113281 1047.914062 1349.160156 1057.757812 1343.964844 1067.476562 C 1338.765625 1077.199219 1333.335938 1086.785156 1327.667969 1096.238281 C 1322.003906 1105.695312 1316.109375 1115.003906 1309.984375 1124.167969 C 1303.859375 1133.332031 1297.515625 1142.339844 1290.949219 1151.195312 C 1284.382812 1160.046875 1277.605469 1168.734375 1270.613281 1177.253906 C 1263.621094 1185.773438 1256.421875 1194.117188 1249.019531 1202.285156 C 1241.617188 1210.453125 1234.019531 1218.433594 1226.226562 1226.226562 C 1218.433594 1234.019531 1210.453125 1241.617188 1202.285156 1249.019531 C 1194.117188 1256.421875 1185.773438 1263.621094 1177.253906 1270.613281 C 1168.734375 1277.605469 1160.046875 1284.382812 1151.195312 1290.949219 C 1142.339844 1297.515625 1133.332031 1303.859375 1124.167969 1309.984375 C 1115.003906 1316.109375 1105.695312 1322.003906 1096.238281 1327.667969 C 1086.785156 1333.335938 1077.199219 1338.765625 1067.476562 1343.964844 C 1057.757812 1349.160156 1047.914062 1354.113281 1037.949219 1358.824219 C 1027.984375 1363.539062 1017.914062 1368.003906 1007.730469 1372.222656 C 997.546875 1376.441406 987.265625 1380.40625 976.886719 1384.117188 C 966.511719 1387.832031 956.046875 1391.289062 945.5 1394.488281 C 934.953125 1397.6875 924.332031 1400.625 913.640625 1403.304688 C 902.949219 1405.984375 892.195312 1408.398438 881.386719 1410.546875 C 870.578125 1412.699219 859.71875 1414.582031 848.816406 1416.199219 C 837.914062 1417.816406 826.976562 1419.164062 816.007812 1420.246094 C 805.039062 1421.324219 794.050781 1422.136719 783.042969 1422.675781 C 772.03125 1423.21875 761.015625 1423.488281 749.996094 1423.488281 C 738.972656 1423.488281 727.957031 1423.21875 716.949219 1422.675781 C 705.9375 1422.136719 694.949219 1421.324219 683.980469 1420.246094 C 673.011719 1419.164062 662.074219 1417.816406 651.171875 1416.199219 C 640.269531 1414.582031 629.414062 1412.699219 618.601562 1410.546875 C 607.792969 1408.398438 597.039062 1405.984375 586.347656 1403.304688 C 575.65625 1400.625 565.039062 1397.6875 554.488281 1394.488281 C 543.941406 1391.289062 533.480469 1387.832031 523.101562 1384.117188 C 512.722656 1380.40625 502.441406 1376.441406 492.257812 1372.222656 C 482.078125 1368.003906 472.003906 1363.539062 462.039062 1358.824219 C 452.074219 1354.113281 442.230469 1349.160156 432.511719 1343.964844 C 422.789062 1338.765625 413.203125 1333.335938 403.75 1327.667969 C 394.296875 1322.003906 384.984375 1316.109375 375.820312 1309.984375 C 366.65625 1303.859375 357.648438 1297.515625 348.792969 1290.949219 C 339.941406 1284.382812 331.253906 1277.605469 322.734375 1270.613281 C 314.214844 1263.621094 305.871094 1256.421875 297.703125 1249.019531 C 289.535156 1241.617188 281.554688 1234.019531 273.761719 1226.226562 C 265.96875 1218.433594 258.371094 1210.453125 250.96875 1202.285156 C 243.566406 1194.117188 236.367188 1185.773438 229.375 1177.253906 C 222.382812 1168.734375 215.605469 1160.046875 209.039062 1151.195312 C 202.472656 1142.339844 196.128906 1133.332031 190.003906 1124.167969 C 183.882812 1115.003906 177.984375 1105.695312 172.320312 1096.238281 C 166.652344 1086.785156 161.222656 1077.199219 156.027344 1067.476562 C 150.828125 1057.757812 145.875 1047.914062 141.164062 1037.949219 C 136.449219 1027.984375 131.984375 1017.914062 127.765625 1007.730469 C 123.550781 997.546875 119.582031 987.265625 115.871094 976.886719 C 112.15625 966.507812 108.699219 956.046875 105.5 945.5 C 102.300781 934.953125 99.363281 924.332031 96.683594 913.640625 C 94.007812 902.949219 91.589844 892.195312 89.441406 881.386719 C 87.292969 870.574219 85.40625 859.71875 83.789062 848.816406 C 82.171875 837.914062 80.824219 826.976562 79.742188 816.007812 C 78.664062 805.039062 77.851562 794.050781 77.3125 783.042969 C 76.769531 772.03125 76.5 761.015625 76.5 749.996094 C 76.5 738.972656 76.769531 727.957031 77.3125 716.949219 C 77.851562 705.9375 78.664062 694.949219 79.742188 683.980469 C 80.824219 673.011719 82.171875 662.074219 83.789062 651.171875 C 85.40625 640.269531 87.292969 629.414062 89.441406 618.601562 C 91.589844 607.792969 94.007812 597.039062 96.683594 586.347656 C 99.363281 575.65625 102.300781 565.035156 105.5 554.488281 C 108.699219 543.941406 112.15625 533.480469 115.871094 523.101562 C 119.582031 512.722656 123.550781 502.441406 127.765625 492.257812 C 131.984375 482.078125 136.449219 472.003906 141.164062 462.039062 C 145.875 452.074219 150.828125 442.230469 156.027344 432.511719 C 161.222656 422.789062 166.652344 413.203125 172.320312 403.75 C 177.984375 394.296875 183.882812 384.984375 190.003906 375.820312 C 196.128906 366.65625 202.472656 357.648438 209.039062 348.792969 C 215.605469 339.941406 222.382812 331.253906 229.375 322.734375 C 236.367188 314.214844 243.566406 305.871094 250.96875 297.703125 C 258.371094 289.535156 265.96875 281.554688 273.761719 273.761719 C 281.554688 265.96875 289.535156 258.371094 297.703125 250.96875 C 305.871094 243.566406 314.214844 236.367188 322.734375 229.375 C 331.253906 222.382812 339.941406 215.605469 348.792969 209.039062 C 357.648438 202.472656 366.65625 196.128906 375.820312 190.003906 C 384.984375 183.882812 394.296875 177.984375 403.75 172.320312 C 413.203125 166.652344 422.789062 161.222656 432.511719 156.027344 C 442.230469 150.828125 452.074219 145.875 462.039062 141.164062 C 472.003906 136.449219 482.078125 131.984375 492.257812 127.765625 C 502.441406 123.550781 512.722656 119.582031 523.101562 115.871094 C 533.480469 112.15625 543.941406 108.699219 554.488281 105.5 C 565.035156 102.300781 575.65625 99.363281 586.347656 96.683594 C 597.039062 94.007812 607.792969 91.589844 618.601562 89.441406 C 629.414062 87.292969 640.269531 85.40625 651.171875 83.789062 C 662.074219 82.171875 673.011719 80.824219 683.980469 79.742188 C 694.949219 78.664062 705.9375 77.851562 716.949219 77.3125 C 727.957031 76.769531 738.972656 76.5 749.996094 76.5 C 761.015625 76.5 772.03125 76.769531 783.042969 77.3125 C 794.050781 77.851562 805.039062 78.664062 816.007812 79.742188 C 826.976562 80.824219 837.914062 82.171875 848.816406 83.789062 C 859.71875 85.40625 870.578125 87.292969 881.386719 89.441406 C 892.195312 91.589844 902.949219 94.007812 913.640625 96.683594 C 924.332031 99.363281 934.953125 102.300781 945.5 105.5 C 956.046875 108.699219 966.511719 112.15625 976.886719 115.871094 C 987.265625 119.582031 997.546875 123.550781 1007.730469 127.765625 C 1017.914062 131.984375 1027.984375 136.449219 1037.949219 141.164062 C 1047.914062 145.875 1057.757812 150.828125 1067.476562 156.027344 C 1077.199219 161.222656 1086.785156 166.652344 1096.238281 172.320312 C 1105.695312 177.984375 1115.003906 183.882812 1124.167969 190.003906 C 1133.332031 196.128906 1142.339844 202.472656 1151.195312 209.039062 C 1160.046875 215.605469 1168.734375 222.382812 1177.253906 229.375 C 1185.773438 236.367188 1194.117188 243.566406 1202.285156 250.96875 C 1210.453125 258.371094 1218.433594 265.96875 1226.226562 273.761719 C 1234.019531 281.554688 1241.617188 289.535156 1249.019531 297.703125 C 1256.421875 305.871094 1263.621094 314.214844 1270.613281 322.734375 C 1277.605469 331.253906 1284.382812 339.941406 1290.949219 348.792969 C 1297.515625 357.648438 1303.859375 366.65625 1309.984375 375.820312 C 1316.109375 384.984375 1322.003906 394.296875 1327.667969 403.75 C 1333.335938 413.203125 1338.765625 422.789062 1343.964844 432.511719 C 1349.160156 442.230469 1354.113281 452.074219 1358.824219 462.039062 C 1363.539062 472.003906 1368.003906 482.074219 1372.222656 492.257812 C 1376.441406 502.441406 1380.40625 512.722656 1384.117188 523.101562 C 1387.832031 533.480469 1391.289062 543.941406 1394.488281 554.488281 C 1397.6875 565.035156 1400.625 575.65625 1403.304688 586.347656 C 1405.984375 597.039062 1408.398438 607.792969 1410.546875 618.601562 C 1412.699219 629.414062 1414.582031 640.269531 1416.199219 651.171875 C 1417.816406 662.074219 1419.164062 673.011719 1420.246094 683.980469 C 1421.324219 694.949219 1422.136719 705.9375 1422.675781 716.949219 C 1423.21875 727.957031 1423.488281 738.972656 1423.488281 749.996094 Z M 1423.488281 749.996094 " fill-opacity="1" fill-rule="nonzero"></path></g><path fill="#ffffff" d="M 993.800781 983.695312 L 899.511719 983.695312 L 899.511719 447.59375 L 993.800781 425.371094 Z M 993.800781 983.695312 " fill-opacity="1" fill-rule="nonzero"></path><path fill="#ffffff" d="M 620.011719 1057.78125 L 526.394531 1057.78125 L 526.394531 539.191406 L 620.011719 516.292969 Z M 620.011719 1057.78125 " fill-opacity="1" fill-rule="nonzero"></path><path fill="#ffffff" d="M 526.394531 539.191406 L 526.394531 648.96875 L 993.800781 532.457031 L 993.800781 425.371094 Z M 526.394531 539.191406 " fill-opacity="1" fill-rule="nonzero"></path><path fill="#ffffff" d="M 782.367188 1010.816406 C 782.167969 1009.710938 782.011719 1008.597656 781.898438 1007.476562 C 781.785156 1006.355469 781.714844 1005.230469 781.6875 1004.097656 C 781.660156 1002.964844 781.675781 1001.832031 781.734375 1000.691406 C 781.789062 999.550781 781.890625 998.40625 782.03125 997.261719 C 782.175781 996.117188 782.359375 994.96875 782.585938 993.820312 C 782.816406 992.671875 783.082031 991.523438 783.394531 990.375 C 783.707031 989.226562 784.058594 988.078125 784.453125 986.933594 C 784.851562 985.789062 785.285156 984.644531 785.761719 983.503906 C 786.242188 982.363281 786.757812 981.226562 787.316406 980.09375 C 787.875 978.960938 788.476562 977.835938 789.113281 976.714844 C 789.753906 975.59375 790.429688 974.476562 791.148438 973.371094 C 791.863281 972.261719 792.621094 971.164062 793.414062 970.070312 C 794.207031 968.980469 795.039062 967.898438 795.910156 966.824219 C 796.777344 965.75 797.683594 964.691406 798.625 963.640625 C 799.566406 962.585938 800.542969 961.546875 801.554688 960.519531 C 802.566406 959.492188 803.613281 958.480469 804.691406 957.480469 C 805.773438 956.480469 806.882812 955.492188 808.03125 954.519531 C 809.175781 953.550781 810.351562 952.59375 811.558594 951.652344 C 812.769531 950.710938 814.007812 949.789062 815.273438 948.882812 C 816.542969 947.972656 817.839844 947.085938 819.164062 946.214844 C 820.488281 945.34375 821.839844 944.488281 823.214844 943.65625 C 824.59375 942.824219 825.996094 942.007812 827.425781 941.214844 C 828.855469 940.421875 830.304688 939.648438 831.78125 938.898438 C 833.253906 938.144531 834.75 937.414062 836.269531 936.707031 C 837.789062 935.996094 839.324219 935.3125 840.882812 934.648438 C 842.441406 933.984375 844.015625 933.34375 845.609375 932.730469 C 847.203125 932.113281 848.8125 931.519531 850.4375 930.953125 C 852.0625 930.382812 853.703125 929.839844 855.355469 929.320312 C 857.011719 928.804688 858.675781 928.3125 860.355469 927.84375 C 862.03125 927.375 863.71875 926.933594 865.414062 926.519531 C 867.113281 926.101562 868.820312 925.714844 870.53125 925.351562 C 872.246094 924.988281 873.964844 924.652344 875.691406 924.347656 C 877.414062 924.039062 879.144531 923.757812 880.878906 923.503906 C 882.609375 923.25 884.34375 923.023438 886.082031 922.824219 C 887.816406 922.625 889.554688 922.453125 891.289062 922.3125 C 893.023438 922.167969 894.757812 922.054688 896.488281 921.96875 C 898.21875 921.882812 899.945312 921.824219 901.667969 921.792969 C 903.386719 921.761719 905.101562 921.761719 906.8125 921.785156 C 908.519531 921.8125 910.21875 921.867188 911.910156 921.949219 C 913.601562 922.03125 915.28125 922.140625 916.953125 922.28125 C 918.621094 922.417969 920.277344 922.585938 921.921875 922.78125 C 923.566406 922.976562 925.195312 923.195312 926.808594 923.445312 C 928.425781 923.695312 930.023438 923.972656 931.605469 924.277344 C 933.1875 924.582031 934.75 924.914062 936.292969 925.273438 C 937.839844 925.628906 939.363281 926.015625 940.867188 926.425781 C 942.367188 926.839844 943.851562 927.277344 945.308594 927.738281 C 946.769531 928.203125 948.203125 928.691406 949.613281 929.207031 C 951.027344 929.722656 952.410156 930.261719 953.769531 930.824219 C 955.132812 931.390625 956.464844 931.980469 957.769531 932.59375 C 959.074219 933.203125 960.351562 933.839844 961.597656 934.5 C 962.84375 935.160156 964.0625 935.84375 965.25 936.546875 C 966.433594 937.253906 967.589844 937.980469 968.714844 938.730469 C 969.835938 939.476562 970.925781 940.25 971.984375 941.039062 C 973.039062 941.828125 974.0625 942.640625 975.050781 943.472656 C 976.035156 944.300781 976.988281 945.152344 977.90625 946.019531 C 978.820312 946.886719 979.703125 947.773438 980.542969 948.679688 C 981.386719 949.582031 982.191406 950.503906 982.960938 951.441406 C 983.726562 952.382812 984.457031 953.335938 985.148438 954.304688 C 985.835938 955.273438 986.488281 956.257812 987.097656 957.257812 C 987.710938 958.253906 988.28125 959.265625 988.8125 960.292969 C 989.34375 961.316406 989.832031 962.355469 990.28125 963.40625 C 990.730469 964.453125 991.136719 965.515625 991.503906 966.585938 C 991.871094 967.65625 992.195312 968.738281 992.476562 969.828125 C 992.757812 970.917969 992.996094 972.015625 993.195312 973.125 C 993.394531 974.230469 993.550781 975.34375 993.664062 976.464844 C 993.773438 977.585938 993.84375 978.710938 993.875 979.84375 C 993.902344 980.972656 993.886719 982.109375 993.828125 983.25 C 993.773438 984.390625 993.671875 985.53125 993.527344 986.679688 C 993.386719 987.824219 993.203125 988.972656 992.972656 990.121094 C 992.746094 991.269531 992.476562 992.417969 992.167969 993.566406 C 991.855469 994.714844 991.5 995.863281 991.105469 997.007812 C 990.710938 998.152344 990.277344 999.296875 989.796875 1000.4375 C 989.320312 1001.578125 988.804688 1002.714844 988.246094 1003.847656 C 987.6875 1004.980469 987.085938 1006.105469 986.449219 1007.226562 C 985.808594 1008.347656 985.132812 1009.464844 984.414062 1010.570312 C 983.695312 1011.679688 982.941406 1012.777344 982.148438 1013.871094 C 981.355469 1014.960938 980.523438 1016.042969 979.652344 1017.117188 C 978.785156 1018.1875 977.878906 1019.25 976.9375 1020.300781 C 975.996094 1021.351562 975.019531 1022.390625 974.007812 1023.417969 C 972.996094 1024.445312 971.949219 1025.460938 970.871094 1026.460938 C 969.789062 1027.460938 968.675781 1028.449219 967.53125 1029.421875 C 966.386719 1030.390625 965.210938 1031.347656 964 1032.289062 C 962.792969 1033.230469 961.554688 1034.152344 960.289062 1035.058594 C 959.019531 1035.96875 957.722656 1036.855469 956.398438 1037.726562 C 955.074219 1038.597656 953.722656 1039.453125 952.34375 1040.285156 C 950.96875 1041.117188 949.5625 1041.933594 948.136719 1042.726562 C 946.707031 1043.519531 945.257812 1044.292969 943.78125 1045.042969 C 942.304688 1045.796875 940.808594 1046.527344 939.292969 1047.234375 C 937.773438 1047.945312 936.234375 1048.628906 934.679688 1049.292969 C 933.121094 1049.957031 931.542969 1050.597656 929.949219 1051.210938 C 928.359375 1051.828125 926.75 1052.421875 925.121094 1052.988281 C 923.496094 1053.558594 921.859375 1054.101562 920.203125 1054.617188 C 918.550781 1055.136719 916.886719 1055.628906 915.207031 1056.097656 C 913.53125 1056.566406 911.84375 1057.007812 910.144531 1057.421875 C 908.449219 1057.835938 906.742188 1058.226562 905.03125 1058.589844 C 903.316406 1058.953125 901.597656 1059.285156 899.871094 1059.59375 C 898.144531 1059.902344 896.417969 1060.183594 894.683594 1060.4375 C 892.953125 1060.691406 891.21875 1060.917969 889.480469 1061.117188 C 887.746094 1061.316406 886.007812 1061.484375 884.273438 1061.628906 C 882.539062 1061.769531 880.804688 1061.886719 879.074219 1061.972656 C 877.34375 1062.058594 875.617188 1062.117188 873.894531 1062.148438 C 872.171875 1062.179688 870.457031 1062.179688 868.75 1062.152344 C 867.042969 1062.128906 865.34375 1062.074219 863.652344 1061.992188 C 861.960938 1061.910156 860.28125 1061.796875 858.609375 1061.660156 C 856.941406 1061.523438 855.285156 1061.355469 853.640625 1061.160156 C 851.996094 1060.964844 850.367188 1060.746094 848.75 1060.496094 C 847.136719 1060.246094 845.539062 1059.96875 843.957031 1059.664062 C 842.375 1059.359375 840.8125 1059.027344 839.269531 1058.667969 C 837.722656 1058.3125 836.199219 1057.925781 834.695312 1057.515625 C 833.191406 1057.101562 831.710938 1056.664062 830.253906 1056.203125 C 828.792969 1055.738281 827.359375 1055.25 825.945312 1054.734375 C 824.535156 1054.21875 823.148438 1053.679688 821.789062 1053.117188 C 820.429688 1052.550781 819.097656 1051.960938 817.792969 1051.347656 C 816.488281 1050.738281 815.210938 1050.101562 813.964844 1049.441406 C 812.714844 1048.78125 811.5 1048.097656 810.3125 1047.394531 C 809.125 1046.6875 807.972656 1045.960938 806.847656 1045.210938 C 805.726562 1044.464844 804.636719 1043.691406 803.578125 1042.902344 C 802.523438 1042.113281 801.5 1041.300781 800.511719 1040.46875 C 799.523438 1039.640625 798.574219 1038.789062 797.65625 1037.921875 C 796.738281 1037.054688 795.859375 1036.167969 795.015625 1035.261719 C 794.175781 1034.359375 793.367188 1033.4375 792.601562 1032.5 C 791.832031 1031.558594 791.105469 1030.605469 790.414062 1029.636719 C 789.726562 1028.667969 789.074219 1027.683594 788.464844 1026.683594 C 787.851562 1025.6875 787.28125 1024.671875 786.75 1023.648438 C 786.21875 1022.625 785.730469 1021.585938 785.28125 1020.535156 C 784.832031 1019.488281 784.425781 1018.425781 784.058594 1017.355469 C 783.691406 1016.285156 783.367188 1015.203125 783.085938 1014.113281 C 782.804688 1013.023438 782.5625 1011.925781 782.367188 1010.816406 Z M 782.367188 1010.816406 " fill-opacity="1" fill-rule="nonzero"></path><path fill="#ffffff" d="M 408.605469 1080.933594 C 408.40625 1079.828125 408.25 1078.714844 408.136719 1077.59375 C 408.027344 1076.472656 407.957031 1075.347656 407.925781 1074.214844 C 407.898438 1073.082031 407.914062 1071.949219 407.972656 1070.808594 C 408.027344 1069.667969 408.128906 1068.523438 408.273438 1067.378906 C 408.414062 1066.234375 408.597656 1065.085938 408.828125 1063.9375 C 409.054688 1062.789062 409.324219 1061.640625 409.632812 1060.492188 C 409.945312 1059.34375 410.300781 1058.195312 410.695312 1057.050781 C 411.089844 1055.90625 411.523438 1054.761719 412.003906 1053.621094 C 412.480469 1052.480469 412.996094 1051.34375 413.554688 1050.210938 C 414.117188 1049.078125 414.714844 1047.953125 415.351562 1046.832031 C 415.992188 1045.710938 416.667969 1044.59375 417.386719 1043.488281 C 418.105469 1042.378906 418.859375 1041.28125 419.652344 1040.1875 C 420.449219 1039.097656 421.277344 1038.015625 422.148438 1036.941406 C 423.015625 1035.867188 423.921875 1034.808594 424.863281 1033.753906 C 425.804688 1032.703125 426.78125 1031.664062 427.792969 1030.636719 C 428.804688 1029.609375 429.851562 1028.597656 430.929688 1027.597656 C 432.011719 1026.597656 433.125 1025.609375 434.269531 1024.636719 C 435.414062 1023.664062 436.589844 1022.710938 437.800781 1021.769531 C 439.007812 1020.828125 440.246094 1019.90625 441.511719 1018.996094 C 442.78125 1018.089844 444.078125 1017.203125 445.402344 1016.332031 C 446.726562 1015.460938 448.078125 1014.605469 449.457031 1013.773438 C 450.832031 1012.941406 452.238281 1012.125 453.664062 1011.332031 C 455.09375 1010.539062 456.542969 1009.765625 458.019531 1009.011719 C 459.496094 1008.261719 460.992188 1007.53125 462.507812 1006.824219 C 464.027344 1006.113281 465.566406 1005.429688 467.121094 1004.765625 C 468.679688 1004.101562 470.257812 1003.460938 471.847656 1002.84375 C 473.441406 1002.230469 475.050781 1001.636719 476.679688 1001.070312 C 478.304688 1000.5 479.941406 999.957031 481.597656 999.4375 C 483.25 998.921875 484.914062 998.425781 486.59375 997.960938 C 488.269531 997.492188 489.957031 997.050781 491.65625 996.636719 C 493.351562 996.21875 495.058594 995.832031 496.769531 995.46875 C 498.484375 995.105469 500.203125 994.769531 501.929688 994.460938 C 503.65625 994.152344 505.382812 993.875 507.117188 993.621094 C 508.847656 993.367188 510.582031 993.140625 512.320312 992.941406 C 514.054688 992.742188 515.792969 992.570312 517.527344 992.429688 C 519.261719 992.285156 520.996094 992.171875 522.726562 992.085938 C 524.457031 992 526.183594 991.941406 527.90625 991.910156 C 529.628906 991.878906 531.34375 991.878906 533.050781 991.902344 C 534.757812 991.929688 536.457031 991.984375 538.148438 992.066406 C 539.839844 992.148438 541.519531 992.257812 543.191406 992.398438 C 544.859375 992.535156 546.515625 992.703125 548.160156 992.898438 C 549.804688 993.089844 551.433594 993.3125 553.050781 993.5625 C 554.664062 993.8125 556.261719 994.089844 557.84375 994.394531 C 559.425781 994.699219 560.988281 995.03125 562.53125 995.390625 C 564.078125 995.746094 565.601562 996.132812 567.105469 996.542969 C 568.609375 996.957031 570.089844 997.394531 571.546875 997.855469 C 573.007812 998.320312 574.441406 998.808594 575.855469 999.324219 C 577.265625 999.839844 578.652344 1000.378906 580.011719 1000.941406 C 581.371094 1001.507812 582.703125 1002.097656 584.007812 1002.707031 C 585.3125 1003.320312 586.589844 1003.957031 587.835938 1004.617188 C 589.085938 1005.277344 590.300781 1005.960938 591.488281 1006.664062 C 592.675781 1007.371094 593.828125 1008.097656 594.953125 1008.847656 C 596.074219 1009.59375 597.164062 1010.363281 598.222656 1011.15625 C 599.277344 1011.945312 600.300781 1012.757812 601.289062 1013.585938 C 602.277344 1014.417969 603.226562 1015.269531 604.144531 1016.136719 C 605.0625 1017.003906 605.941406 1017.890625 606.785156 1018.796875 C 607.625 1019.699219 608.433594 1020.621094 609.199219 1021.558594 C 609.96875 1022.5 610.695312 1023.453125 611.386719 1024.421875 C 612.078125 1025.390625 612.726562 1026.375 613.339844 1027.375 C 613.949219 1028.371094 614.519531 1029.382812 615.050781 1030.410156 C 615.582031 1031.433594 616.070312 1032.472656 616.519531 1033.523438 C 616.96875 1034.570312 617.375 1035.632812 617.742188 1036.703125 C 618.109375 1037.773438 618.433594 1038.855469 618.714844 1039.945312 C 618.996094 1041.035156 619.238281 1042.132812 619.433594 1043.242188 C 619.632812 1044.347656 619.789062 1045.460938 619.902344 1046.582031 C 620.015625 1047.703125 620.085938 1048.828125 620.113281 1049.960938 C 620.140625 1051.089844 620.125 1052.226562 620.066406 1053.367188 C 620.011719 1054.507812 619.910156 1055.648438 619.769531 1056.796875 C 619.625 1057.941406 619.441406 1059.089844 619.214844 1060.238281 C 618.988281 1061.386719 618.71875 1062.535156 618.40625 1063.683594 C 618.09375 1064.832031 617.742188 1065.976562 617.347656 1067.125 C 616.953125 1068.269531 616.515625 1069.414062 616.039062 1070.554688 C 615.558594 1071.695312 615.042969 1072.832031 614.484375 1073.964844 C 613.925781 1075.09375 613.324219 1076.222656 612.6875 1077.34375 C 612.046875 1078.464844 611.371094 1079.578125 610.652344 1080.6875 C 609.9375 1081.796875 609.179688 1082.894531 608.386719 1083.988281 C 607.59375 1085.078125 606.761719 1086.160156 605.890625 1087.234375 C 605.023438 1088.304688 604.117188 1089.367188 603.175781 1090.417969 C 602.234375 1091.46875 601.257812 1092.507812 600.246094 1093.535156 C 599.234375 1094.5625 598.1875 1095.578125 597.109375 1096.578125 C 596.027344 1097.578125 594.917969 1098.566406 593.769531 1099.535156 C 592.625 1100.507812 591.449219 1101.464844 590.242188 1102.40625 C 589.03125 1103.347656 587.792969 1104.269531 586.527344 1105.175781 C 585.257812 1106.082031 583.964844 1106.972656 582.636719 1107.84375 C 581.3125 1108.714844 579.960938 1109.566406 578.585938 1110.402344 C 577.207031 1111.234375 575.804688 1112.050781 574.375 1112.84375 C 572.945312 1113.636719 571.496094 1114.410156 570.019531 1115.160156 C 568.546875 1115.914062 567.050781 1116.644531 565.53125 1117.351562 C 564.011719 1118.058594 562.476562 1118.746094 560.917969 1119.410156 C 559.359375 1120.074219 557.785156 1120.710938 556.191406 1121.328125 C 554.597656 1121.945312 552.988281 1122.539062 551.363281 1123.105469 C 549.738281 1123.675781 548.097656 1124.21875 546.445312 1124.734375 C 544.789062 1125.253906 543.125 1125.746094 541.445312 1126.214844 C 539.769531 1126.683594 538.082031 1127.125 536.382812 1127.539062 C 534.6875 1127.953125 532.980469 1128.34375 531.269531 1128.707031 C 529.554688 1129.066406 527.835938 1129.402344 526.109375 1129.710938 C 524.386719 1130.019531 522.65625 1130.300781 520.921875 1130.554688 C 519.191406 1130.808594 517.457031 1131.035156 515.71875 1131.234375 C 513.984375 1131.433594 512.246094 1131.601562 510.511719 1131.746094 C 508.777344 1131.886719 507.042969 1132.003906 505.3125 1132.089844 C 503.582031 1132.175781 501.855469 1132.234375 500.132812 1132.265625 C 498.414062 1132.296875 496.699219 1132.296875 494.988281 1132.269531 C 493.28125 1132.246094 491.582031 1132.191406 489.890625 1132.109375 C 488.199219 1132.027344 486.519531 1131.914062 484.851562 1131.777344 C 483.179688 1131.636719 481.523438 1131.472656 479.878906 1131.277344 C 478.234375 1131.082031 476.605469 1130.859375 474.992188 1130.613281 C 473.375 1130.363281 471.777344 1130.085938 470.195312 1129.78125 C 468.613281 1129.476562 467.050781 1129.144531 465.507812 1128.785156 C 463.964844 1128.429688 462.4375 1128.042969 460.9375 1127.632812 C 459.433594 1127.21875 457.949219 1126.78125 456.492188 1126.320312 C 455.03125 1125.855469 453.597656 1125.367188 452.1875 1124.851562 C 450.773438 1124.335938 449.390625 1123.796875 448.03125 1123.230469 C 446.667969 1122.667969 445.335938 1122.078125 444.03125 1121.464844 C 442.726562 1120.851562 441.449219 1120.21875 440.203125 1119.558594 C 438.957031 1118.898438 437.738281 1118.214844 436.550781 1117.507812 C 435.367188 1116.804688 434.210938 1116.078125 433.085938 1115.328125 C 431.964844 1114.578125 430.875 1113.808594 429.816406 1113.019531 C 428.761719 1112.226562 427.738281 1111.417969 426.75 1110.585938 C 425.765625 1109.757812 424.8125 1108.90625 423.894531 1108.039062 C 422.980469 1107.167969 422.097656 1106.28125 421.257812 1105.378906 C 420.414062 1104.472656 419.609375 1103.554688 418.839844 1102.613281 C 418.074219 1101.675781 417.34375 1100.722656 416.652344 1099.753906 C 415.964844 1098.785156 415.3125 1097.800781 414.703125 1096.800781 C 414.089844 1095.800781 413.519531 1094.789062 412.988281 1093.765625 C 412.457031 1092.738281 411.96875 1091.703125 411.519531 1090.652344 C 411.070312 1089.601562 410.664062 1088.542969 410.296875 1087.472656 C 409.929688 1086.402344 409.605469 1085.320312 409.324219 1084.230469 C 409.042969 1083.140625 408.804688 1082.042969 408.605469 1080.933594 Z M 408.605469 1080.933594 " fill-opacity="1" fill-rule="nonzero"></path></svg> 